<svg xmlns="http://www.w3.org/2000/svg" viewBox="0 -0.5 16 32" shape-rendering="crispEdges">
<metadata>Made with Pixels to Svg https://codepen.io/shshaw/pen/XbxvNj</metadata>
<path stroke="#1f1f29" d="M7 8h2M6 9h1M9 9h1M6 10h5M11 11h2M2 12h1M13 12h1M2 13h1M13 13h1M3 14h1M12 14h1M4 15h1M11 15h1M4 16h1M11 16h1M5 17h1M10 17h1M5 18h1M10 18h1M5 19h1M10 19h1M5 20h1M10 20h1M5 21h1M10 21h1M5 22h1M10 22h1M5 23h1M10 23h1M11 24h1M12 25h1M2 26h1M13 26h1M2 27h1M13 27h1M2 28h1M13 28h1M1 29h1M14 29h1M1 30h2M13 30h2M2 31h12" />
<path stroke="#eaf0d8" d="M7 9h2M5 11h2M3 12h2M3 13h1M4 14h1M5 24h1M4 25h1M3 26h1M3 27h3M2 29h5" />
<path stroke="#596070" d="M5 10h1M3 11h2M10 11h1M11 12h2M6 13h7M10 14h2M10 15h1M5 16h1M9 16h2M8 17h2M9 18h1M9 19h1M9 20h1M9 21h1M9 22h1M9 23h1M4 24h1M9 24h2M3 25h1M7 25h5M11 26h2M11 27h2M7 28h6M10 29h4M3 30h10" />
<path stroke="#96a2b3" d="M7 11h3M5 12h6M4 13h2M5 14h5M5 15h5M6 16h3M6 17h2M6 18h3M6 19h3M6 20h3M6 21h3M6 22h3M6 23h3M6 24h3M5 25h2M4 26h7M6 27h5M3 28h4M7 29h3" />
</svg>