<svg xmlns="http://www.w3.org/2000/svg" viewBox="0 -0.5 16 32" shape-rendering="crispEdges">
<metadata>Made with Pixels to Svg https://codepen.io/shshaw/pen/XbxvNj</metadata>
<path stroke="#413a42" d="M6 16h1M5 17h1M4 18h1M10 20h1M5 21h1M9 21h2M6 22h1M8 22h2M9 23h1M4 24h1M9 24h2M3 25h1M10 25h2M11 26h2M11 27h2M7 28h6M10 29h4M3 30h10" />
<path stroke="#1f1f29" d="M7 16h3M10 17h1M11 18h1M4 19h1M11 19h1M4 20h1M11 20h1M4 21h1M11 21h1M5 22h1M10 22h1M5 23h1M10 23h1M11 24h1M12 25h1M2 26h1M13 26h1M2 27h1M13 27h1M2 28h1M13 28h1M1 29h1M14 29h1M1 30h2M13 30h2M2 31h12" />
<path stroke="#96a2b3" d="M6 17h2M5 18h1M4 25h1M3 26h1M3 27h3M2 29h5" />
<path stroke="#596070" d="M8 17h2M6 18h5M5 19h6M5 20h5M6 21h3M7 22h1M6 23h3M5 24h4M5 25h5M4 26h7M6 27h5M3 28h4M7 29h3" />
</svg>