<svg xmlns="http://www.w3.org/2000/svg" viewBox="0 -0.5 16 32" shape-rendering="crispEdges">
<metadata>Made with Pixels to Svg https://codepen.io/shshaw/pen/XbxvNj</metadata>
<path stroke="#596070" d="M2 13h2M2 14h1M2 15h1M5 15h2M9 15h2M12 15h1M11 16h2M11 17h2M10 18h2M9 19h2M10 20h1M10 21h1M4 22h1M9 22h2M3 23h1M10 23h2M3 24h1M10 24h2M2 25h1M7 25h6M11 26h2M11 27h2M7 28h6M10 29h4M3 30h10" />
<path stroke="#1f1f29" d="M4 13h1M6 13h3M10 13h4M5 14h2M9 14h2M13 14h1M13 15h1M2 16h1M13 16h1M2 17h1M13 17h1M3 18h1M12 18h1M4 19h1M11 19h1M4 20h1M11 20h1M4 21h1M11 21h1M11 22h1M12 23h1M12 24h1M13 25h1M2 26h1M13 26h1M2 27h1M13 27h1M2 28h1M13 28h1M1 29h1M14 29h1M1 30h2M13 30h2M2 31h12" />
<path stroke="#eaf0d8" d="M3 14h2M7 14h2M3 15h1M7 15h1M3 16h1M5 22h1M4 23h1M4 24h1M3 25h1M3 26h1M3 27h3M2 29h5" />
<path stroke="#96a2b3" d="M11 14h2M4 15h1M8 15h1M11 15h1M4 16h7M3 17h8M4 18h6M5 19h4M5 20h5M5 21h5M6 22h3M5 23h5M5 24h5M4 25h3M4 26h7M6 27h5M3 28h4M7 29h3" />
</svg>