<svg xmlns="http://www.w3.org/2000/svg" viewBox="0 -0.5 142 142" shape-rendering="crispEdges">
<metadata>Made with Pixels to Svg https://codepen.io/shshaw/pen/XbxvNj</metadata>
<path stroke="#454d5f" d="M0 14h142M0 15h142M0 16h142M0 17h142M0 18h142M0 19h6M136 19h6M0 20h6M23 20h16M55 20h16M87 20h16M119 20h16M136 20h6M0 21h6M23 21h16M55 21h16M87 21h16M119 21h16M136 21h6M0 22h6M23 22h16M55 22h16M87 22h16M119 22h16M136 22h6M0 23h6M23 23h16M55 23h16M87 23h16M119 23h16M136 23h6M0 24h6M23 24h16M55 24h16M87 24h16M119 24h16M136 24h6M0 25h6M23 25h16M55 25h16M87 25h16M119 25h16M136 25h6M0 26h2M5 26h1M23 26h16M55 26h16M87 26h16M119 26h16M136 26h6M0 27h3M4 27h2M23 27h16M55 27h16M87 27h16M119 27h16M136 27h6M0 28h2M5 28h1M23 28h16M55 28h16M87 28h16M119 28h16M136 28h6M0 29h6M23 29h16M55 29h16M87 29h16M119 29h16M136 29h6M0 30h6M23 30h16M55 30h16M87 30h16M119 30h16M136 30h6M0 31h6M23 31h16M55 31h16M87 31h16M119 31h16M136 31h6M0 32h6M7 32h16M39 32h16M71 32h16M103 32h16M136 32h6M0 33h6M7 33h16M39 33h16M71 33h16M103 33h16M136 33h6M0 34h6M7 34h16M39 34h16M71 34h16M103 34h16M136 34h6M0 35h6M7 35h16M39 35h16M71 35h16M103 35h16M136 35h6M0 36h6M7 36h16M39 36h16M71 36h16M103 36h16M136 36h6M0 37h6M7 37h16M39 37h16M71 37h16M103 37h16M136 37h6M0 38h2M4 38h2M7 38h16M39 38h16M71 38h16M103 38h16M136 38h6M0 39h3M4 39h2M7 39h16M39 39h16M71 39h16M103 39h16M136 39h6M0 40h3M4 40h2M7 40h16M39 40h16M71 40h16M103 40h16M136 40h6M0 41h6M7 41h16M39 41h16M71 41h16M103 41h16M136 41h6M0 42h6M7 42h16M39 42h16M71 42h16M103 42h16M136 42h6M0 43h6M7 43h16M39 43h16M71 43h16M103 43h16M136 43h6M0 44h6M23 44h16M55 44h16M87 44h16M119 44h16M136 44h6M0 45h6M23 45h16M55 45h16M87 45h16M119 45h16M136 45h6M0 46h6M23 46h16M55 46h16M87 46h16M119 46h16M136 46h6M0 47h6M23 47h16M55 47h16M87 47h16M119 47h16M136 47h6M0 48h6M23 48h16M55 48h16M87 48h16M119 48h16M136 48h6M0 49h6M23 49h16M55 49h16M87 49h16M119 49h16M136 49h6M0 50h2M3 50h3M23 50h16M55 50h16M87 50h16M119 50h16M136 50h6M0 51h2M4 51h2M23 51h16M55 51h16M87 51h16M119 51h16M136 51h6M0 52h2M4 52h2M23 52h16M55 52h16M87 52h16M119 52h16M136 52h6M0 53h6M23 53h16M55 53h16M87 53h16M119 53h16M136 53h6M0 54h6M23 54h16M55 54h16M87 54h16M119 54h16M136 54h6M0 55h6M23 55h16M55 55h16M87 55h16M119 55h16M136 55h6M0 56h6M7 56h16M39 56h16M71 56h16M103 56h16M136 56h6M0 57h6M7 57h16M39 57h16M71 57h16M103 57h16M136 57h6M0 58h6M7 58h16M39 58h16M71 58h16M103 58h16M136 58h6M0 59h6M7 59h16M39 59h16M71 59h16M103 59h16M136 59h6M0 60h6M7 60h16M39 60h16M71 60h16M103 60h16M136 60h6M0 61h6M7 61h16M39 61h16M71 61h16M103 61h16M136 61h6M0 62h3M5 62h1M7 62h16M39 62h16M71 62h16M103 62h16M136 62h6M0 63h3M4 63h2M7 63h16M39 63h16M71 63h16M103 63h16M136 63h6M0 64h2M4 64h2M7 64h16M39 64h16M71 64h16M103 64h16M136 64h6M0 65h6M7 65h16M39 65h16M71 65h16M103 65h16M136 65h6M0 66h6M7 66h16M39 66h16M71 66h16M103 66h16M136 66h6M0 67h6M7 67h16M39 67h16M71 67h16M103 67h16M136 67h6M0 68h6M23 68h16M55 68h16M87 68h16M119 68h16M136 68h6M0 69h6M23 69h16M55 69h16M87 69h16M119 69h16M136 69h6M0 70h6M23 70h16M55 70h16M87 70h16M119 70h16M136 70h6M0 71h6M23 71h16M55 71h16M87 71h16M119 71h16M136 71h6M0 72h6M23 72h16M55 72h16M87 72h16M119 72h16M136 72h6M0 73h6M23 73h16M55 73h16M87 73h16M119 73h16M136 73h6M0 74h2M3 74h1M5 74h1M23 74h16M55 74h16M87 74h16M119 74h16M136 74h6M0 75h3M5 75h1M23 75h16M55 75h16M87 75h16M119 75h16M136 75h6M0 76h4M5 76h1M23 76h16M55 76h16M87 76h16M119 76h16M136 76h6M0 77h6M23 77h16M55 77h16M87 77h16M119 77h16M136 77h6M0 78h6M23 78h16M55 78h16M87 78h16M119 78h16M136 78h6M0 79h6M23 79h16M55 79h16M87 79h16M119 79h16M136 79h6M0 80h6M7 80h16M39 80h16M71 80h16M103 80h16M136 80h6M0 81h6M7 81h16M39 81h16M71 81h16M103 81h16M136 81h6M0 82h6M7 82h16M39 82h16M71 82h16M103 82h16M136 82h6M0 83h6M7 83h16M39 83h16M71 83h16M103 83h16M136 83h6M0 84h6M7 84h16M39 84h16M71 84h16M103 84h16M136 84h6M0 85h6M7 85h16M39 85h16M71 85h16M103 85h16M136 85h6M0 86h2M4 86h2M7 86h16M39 86h16M71 86h16M103 86h16M136 86h6M0 87h3M5 87h1M7 87h16M39 87h16M71 87h16M103 87h16M136 87h6M0 88h2M4 88h2M7 88h16M39 88h16M71 88h16M103 88h16M136 88h6M0 89h6M7 89h16M39 89h16M71 89h16M103 89h16M136 89h6M0 90h6M7 90h16M39 90h16M71 90h16M103 90h16M136 90h6M0 91h6M7 91h16M39 91h16M71 91h16M103 91h16M136 91h6M0 92h6M23 92h16M55 92h16M87 92h16M119 92h16M136 92h6M0 93h6M23 93h16M55 93h16M87 93h16M119 93h16M136 93h6M0 94h6M23 94h16M55 94h16M87 94h16M119 94h16M136 94h6M0 95h6M23 95h16M55 95h16M87 95h16M119 95h16M136 95h6M0 96h6M23 96h16M55 96h16M87 96h16M119 96h16M136 96h6M0 97h6M23 97h16M55 97h16M87 97h16M119 97h16M136 97h6M0 98h2M4 98h2M23 98h16M55 98h16M87 98h16M119 98h16M136 98h6M0 99h3M4 99h2M23 99h16M55 99h16M87 99h16M119 99h16M136 99h6M0 100h3M5 100h1M23 100h16M55 100h16M87 100h16M119 100h16M136 100h6M0 101h6M23 101h16M55 101h16M87 101h16M119 101h16M136 101h6M0 102h6M23 102h16M55 102h16M87 102h16M119 102h16M136 102h6M0 103h6M23 103h16M55 103h16M87 103h16M119 103h16M136 103h6M0 104h6M7 104h16M39 104h16M71 104h16M103 104h16M136 104h6M0 105h6M7 105h16M39 105h16M71 105h16M103 105h16M136 105h6M0 106h6M7 106h16M39 106h16M71 106h16M103 106h16M136 106h6M0 107h6M7 107h16M39 107h16M71 107h16M103 107h16M136 107h6M0 108h6M7 108h16M39 108h16M71 108h16M103 108h16M136 108h6M0 109h6M7 109h16M39 109h16M71 109h16M103 109h16M136 109h6M0 110h3M4 110h2M7 110h16M39 110h16M71 110h16M103 110h16M136 110h6M0 111h3M4 111h2M7 111h16M39 111h16M71 111h16M103 111h16M136 111h6M0 112h2M5 112h1M7 112h16M39 112h16M71 112h16M103 112h16M136 112h6M0 113h6M7 113h16M39 113h16M71 113h16M103 113h16M136 113h6M0 114h6M7 114h16M39 114h16M71 114h16M103 114h16M136 114h6M0 115h6M7 115h16M39 115h16M71 115h16M103 115h16M136 115h6M0 116h6M136 116h6M0 117h142M0 118h13M15 118h15M31 118h15M48 118h15M64 118h14M80 118h14M96 118h14M112 118h14M127 118h15M0 119h13M15 119h15M32 119h14M47 119h15M64 119h14M79 119h14M95 119h16M112 119h14M128 119h14M0 120h15M16 120h14M32 120h14M48 120h14M64 120h15M80 120h14M95 120h15M111 120h15M127 120h1M129 120h13M0 121h142" />
<path stroke="#e6ead7" d="M6 19h130M6 20h17M39 20h16M71 20h16M103 20h16M135 20h1M6 21h17M39 21h16M71 21h16M103 21h16M135 21h1M6 22h17M39 22h16M71 22h16M103 22h16M135 22h1M6 23h17M39 23h16M71 23h16M103 23h16M135 23h1M6 24h17M39 24h16M71 24h16M103 24h16M135 24h1M6 25h17M39 25h16M71 25h16M103 25h16M135 25h1M6 26h17M39 26h16M71 26h16M103 26h16M135 26h1M6 27h17M39 27h16M71 27h16M103 27h16M135 27h1M6 28h17M39 28h16M71 28h16M103 28h16M135 28h1M6 29h17M39 29h16M71 29h16M103 29h16M135 29h1M6 30h17M39 30h16M71 30h16M103 30h16M135 30h1M6 31h17M39 31h16M71 31h16M103 31h16M135 31h1M6 32h1M23 32h16M55 32h16M87 32h16M119 32h17M6 33h1M23 33h16M55 33h16M87 33h16M119 33h17M6 34h1M23 34h16M55 34h16M87 34h16M119 34h17M6 35h1M23 35h16M55 35h16M87 35h16M119 35h17M6 36h1M23 36h16M55 36h16M87 36h16M119 36h17M6 37h1M23 37h16M55 37h16M87 37h16M119 37h17M6 38h1M23 38h16M55 38h16M87 38h16M119 38h17M6 39h1M23 39h16M55 39h16M87 39h16M119 39h17M6 40h1M23 40h16M55 40h16M87 40h16M119 40h17M6 41h1M23 41h16M55 41h16M87 41h16M119 41h17M6 42h1M23 42h16M55 42h16M87 42h16M119 42h17M6 43h1M23 43h16M55 43h16M87 43h16M119 43h17M6 44h17M39 44h16M71 44h16M103 44h16M135 44h1M6 45h17M39 45h16M71 45h16M103 45h16M135 45h1M6 46h17M39 46h16M71 46h16M103 46h16M135 46h1M6 47h17M39 47h16M71 47h16M103 47h16M135 47h1M6 48h17M39 48h16M71 48h16M103 48h16M135 48h1M6 49h17M39 49h16M71 49h16M103 49h16M135 49h1M6 50h17M39 50h16M71 50h16M103 50h16M135 50h1M6 51h17M39 51h16M71 51h16M103 51h16M135 51h1M6 52h17M39 52h16M71 52h16M103 52h16M135 52h1M6 53h17M39 53h16M71 53h16M103 53h16M135 53h1M6 54h17M39 54h16M71 54h16M103 54h16M135 54h1M6 55h17M39 55h16M71 55h16M103 55h16M135 55h1M6 56h1M23 56h16M55 56h16M87 56h16M119 56h17M6 57h1M23 57h16M55 57h16M87 57h16M119 57h17M6 58h1M23 58h16M55 58h16M87 58h16M119 58h17M6 59h1M23 59h16M55 59h16M87 59h16M119 59h17M6 60h1M23 60h16M55 60h16M87 60h16M119 60h17M6 61h1M23 61h16M55 61h16M87 61h16M119 61h17M6 62h1M23 62h16M55 62h16M87 62h16M119 62h17M6 63h1M23 63h16M55 63h16M87 63h16M119 63h17M6 64h1M23 64h16M55 64h16M87 64h16M119 64h17M6 65h1M23 65h16M55 65h16M87 65h16M119 65h17M6 66h1M23 66h16M55 66h16M87 66h16M119 66h17M6 67h1M23 67h16M55 67h16M87 67h16M119 67h17M6 68h17M39 68h16M71 68h16M103 68h16M135 68h1M6 69h17M39 69h16M71 69h16M103 69h16M135 69h1M6 70h17M39 70h16M71 70h16M103 70h16M135 70h1M6 71h17M39 71h16M71 71h16M103 71h16M135 71h1M6 72h17M39 72h16M71 72h16M103 72h16M135 72h1M6 73h17M39 73h16M71 73h16M103 73h16M135 73h1M6 74h17M39 74h16M71 74h16M103 74h16M135 74h1M6 75h17M39 75h16M71 75h16M103 75h16M135 75h1M6 76h17M39 76h16M71 76h16M103 76h16M135 76h1M6 77h17M39 77h16M71 77h16M103 77h16M135 77h1M6 78h17M39 78h16M71 78h16M103 78h16M135 78h1M6 79h17M39 79h16M71 79h16M103 79h16M135 79h1M6 80h1M23 80h16M55 80h16M87 80h16M119 80h17M6 81h1M23 81h16M55 81h16M87 81h16M119 81h17M6 82h1M23 82h16M55 82h16M87 82h16M119 82h17M6 83h1M23 83h16M55 83h16M87 83h16M119 83h17M6 84h1M23 84h16M55 84h16M87 84h16M119 84h17M6 85h1M23 85h16M55 85h16M87 85h16M119 85h17M6 86h1M23 86h16M55 86h16M87 86h16M119 86h17M6 87h1M23 87h16M55 87h16M87 87h16M119 87h17M6 88h1M23 88h16M55 88h16M87 88h16M119 88h17M6 89h1M23 89h16M55 89h16M87 89h16M119 89h17M6 90h1M23 90h16M55 90h16M87 90h16M119 90h17M6 91h1M23 91h16M55 91h16M87 91h16M119 91h17M6 92h17M39 92h16M71 92h16M103 92h16M135 92h1M6 93h17M39 93h16M71 93h16M103 93h16M135 93h1M6 94h17M39 94h16M71 94h16M103 94h16M135 94h1M6 95h17M39 95h16M71 95h16M103 95h16M135 95h1M6 96h17M39 96h16M71 96h16M103 96h16M135 96h1M6 97h17M39 97h16M71 97h16M103 97h16M135 97h1M6 98h17M39 98h16M71 98h16M103 98h16M135 98h1M6 99h17M39 99h16M71 99h16M103 99h16M135 99h1M6 100h17M39 100h16M71 100h16M103 100h16M135 100h1M6 101h17M39 101h16M71 101h16M103 101h16M135 101h1M6 102h17M39 102h16M71 102h16M103 102h16M135 102h1M6 103h17M39 103h16M71 103h16M103 103h16M135 103h1M6 104h1M23 104h16M55 104h16M87 104h16M119 104h17M6 105h1M23 105h16M55 105h16M87 105h16M119 105h17M6 106h1M23 106h16M55 106h16M87 106h16M119 106h17M6 107h1M23 107h16M55 107h16M87 107h16M119 107h17M6 108h1M23 108h16M55 108h16M87 108h16M119 108h17M6 109h1M23 109h16M55 109h16M87 109h16M119 109h17M6 110h1M23 110h16M55 110h16M87 110h16M119 110h17M6 111h1M23 111h16M55 111h16M87 111h16M119 111h17M6 112h1M23 112h16M55 112h16M87 112h16M119 112h17M6 113h1M23 113h16M55 113h16M87 113h16M119 113h17M6 114h1M23 114h16M55 114h16M87 114h16M119 114h17M6 115h1M23 115h16M55 115h16M87 115h16M119 115h17M6 116h130" />
<path stroke="#96a2b3" d="M2 26h3M3 27h1M2 28h3M2 38h2M3 39h1M3 40h1M2 50h1M2 51h2M2 52h2M3 62h2M3 63h1M2 64h2M2 74h1M4 74h1M3 75h2M4 76h1M2 86h2M3 87h2M2 88h2M2 98h2M3 99h1M3 100h2M3 110h1M3 111h1M2 112h3M13 118h2M30 118h1M46 118h2M63 118h1M78 118h2M94 118h2M110 118h2M126 118h1M13 119h2M30 119h2M46 119h1M62 119h2M78 119h1M93 119h2M111 119h1M126 119h2M15 120h1M30 120h2M46 120h2M62 120h2M79 120h1M94 120h1M110 120h1M126 120h1M128 120h1" />
<path stroke="#30303f" d="M0 122h142M0 123h142M0 124h142" />
</svg>