<svg xmlns="http://www.w3.org/2000/svg" viewBox="0 -0.5 142 142" shape-rendering="crispEdges">
<metadata>Made with Pixels to Svg https://codepen.io/shshaw/pen/XbxvNj</metadata>
<path stroke="#c0c4b3" d="M0 0h142M0 1h142M0 2h142M0 3h142M0 4h142M0 5h142M0 6h6M136 6h6M0 7h6M23 7h16M55 7h16M87 7h16M119 7h16M136 7h6M0 8h6M23 8h16M55 8h16M87 8h16M119 8h16M136 8h6M0 9h6M23 9h16M55 9h16M87 9h16M119 9h16M136 9h6M0 10h6M23 10h16M55 10h16M87 10h16M119 10h16M136 10h6M0 11h6M23 11h16M55 11h16M87 11h16M119 11h16M136 11h6M0 12h6M23 12h16M55 12h16M87 12h16M119 12h16M136 12h6M0 13h2M5 13h1M23 13h16M55 13h16M87 13h16M119 13h16M136 13h6M0 14h3M4 14h2M23 14h16M55 14h16M87 14h16M119 14h16M136 14h6M0 15h2M5 15h1M23 15h16M55 15h16M87 15h16M119 15h16M136 15h6M0 16h6M23 16h16M55 16h16M87 16h16M119 16h16M136 16h6M0 17h6M23 17h16M55 17h16M87 17h16M119 17h16M136 17h6M0 18h6M23 18h16M55 18h16M87 18h16M119 18h16M136 18h6M0 19h6M23 19h16M55 19h16M87 19h16M119 19h16M136 19h6M0 20h6M23 20h16M55 20h16M87 20h16M119 20h16M136 20h6M0 21h6M23 21h16M55 21h16M87 21h16M119 21h16M136 21h6M0 22h6M23 22h16M55 22h16M87 22h16M119 22h16M136 22h6M0 23h6M7 23h16M39 23h16M71 23h16M103 23h16M136 23h6M0 24h6M7 24h16M39 24h16M71 24h16M103 24h16M136 24h6M0 25h6M7 25h16M39 25h16M71 25h16M103 25h16M136 25h6M0 26h6M7 26h16M39 26h16M71 26h16M103 26h16M136 26h6M0 27h6M7 27h16M39 27h16M71 27h16M103 27h16M136 27h6M0 28h6M7 28h16M39 28h16M71 28h16M103 28h16M136 28h6M0 29h6M7 29h16M39 29h16M71 29h16M103 29h16M136 29h6M0 30h2M4 30h2M7 30h16M39 30h16M71 30h16M103 30h16M136 30h6M0 31h3M4 31h2M7 31h16M39 31h16M71 31h16M103 31h16M136 31h6M0 32h3M4 32h2M7 32h16M39 32h16M71 32h16M103 32h16M136 32h6M0 33h6M7 33h16M39 33h16M71 33h16M103 33h16M136 33h6M0 34h6M7 34h16M39 34h16M71 34h16M103 34h16M136 34h6M0 35h6M7 35h16M39 35h16M71 35h16M103 35h16M136 35h6M0 36h6M7 36h16M39 36h16M71 36h16M103 36h16M136 36h6M0 37h6M7 37h16M39 37h16M71 37h16M103 37h16M136 37h6M0 38h6M7 38h16M39 38h16M71 38h16M103 38h16M136 38h6M0 39h6M23 39h16M55 39h16M87 39h16M119 39h16M136 39h6M0 40h6M23 40h16M55 40h16M87 40h16M119 40h16M136 40h6M0 41h6M23 41h16M55 41h16M87 41h16M119 41h16M136 41h6M0 42h6M23 42h16M55 42h16M87 42h16M119 42h16M136 42h6M0 43h6M23 43h16M55 43h16M87 43h16M119 43h16M136 43h6M0 44h6M23 44h16M55 44h16M87 44h16M119 44h16M136 44h6M0 45h2M3 45h3M23 45h16M55 45h16M87 45h16M119 45h16M136 45h6M0 46h2M4 46h2M23 46h16M55 46h16M87 46h16M119 46h16M136 46h6M0 47h2M4 47h2M23 47h16M55 47h16M87 47h16M119 47h16M136 47h6M0 48h6M23 48h16M55 48h16M87 48h16M119 48h16M136 48h6M0 49h6M23 49h16M55 49h16M87 49h16M119 49h16M136 49h6M0 50h6M23 50h16M55 50h16M87 50h16M119 50h16M136 50h6M0 51h6M23 51h16M55 51h16M87 51h16M119 51h16M136 51h6M0 52h6M23 52h16M55 52h16M87 52h16M119 52h16M136 52h6M0 53h6M23 53h16M55 53h16M87 53h16M119 53h16M136 53h6M0 54h6M23 54h16M55 54h16M87 54h16M119 54h16M136 54h6M0 55h6M7 55h16M39 55h16M71 55h16M103 55h16M136 55h6M0 56h6M7 56h16M39 56h16M71 56h16M103 56h16M136 56h6M0 57h6M7 57h16M39 57h16M71 57h16M103 57h16M136 57h6M0 58h6M7 58h16M39 58h16M71 58h16M103 58h16M136 58h6M0 59h6M7 59h16M39 59h16M71 59h16M103 59h16M136 59h6M0 60h6M7 60h16M39 60h16M71 60h16M103 60h16M136 60h6M0 61h3M5 61h1M7 61h16M39 61h16M71 61h16M103 61h16M136 61h6M0 62h3M4 62h2M7 62h16M39 62h16M71 62h16M103 62h16M136 62h6M0 63h2M4 63h2M7 63h16M39 63h16M71 63h16M103 63h16M136 63h6M0 64h6M7 64h16M39 64h16M71 64h16M103 64h16M136 64h6M0 65h6M7 65h16M39 65h16M71 65h16M103 65h16M136 65h6M0 66h6M7 66h16M39 66h16M71 66h16M103 66h16M136 66h6M0 67h6M7 67h16M39 67h16M71 67h16M103 67h16M136 67h6M0 68h6M7 68h16M39 68h16M71 68h16M103 68h16M136 68h6M0 69h6M7 69h16M39 69h16M71 69h16M103 69h16M136 69h6M0 70h6M7 70h16M39 70h16M71 70h16M103 70h16M136 70h6M0 71h6M23 71h16M55 71h16M87 71h16M119 71h16M136 71h6M0 72h6M23 72h16M55 72h16M87 72h16M119 72h16M136 72h6M0 73h6M23 73h16M55 73h16M87 73h16M119 73h16M136 73h6M0 74h6M23 74h16M55 74h16M87 74h16M119 74h16M136 74h6M0 75h6M23 75h16M55 75h16M87 75h16M119 75h16M136 75h6M0 76h6M23 76h16M55 76h16M87 76h16M119 76h16M136 76h6M0 77h6M23 77h16M55 77h16M87 77h16M119 77h16M136 77h6M0 78h2M3 78h1M5 78h1M23 78h16M55 78h16M87 78h16M119 78h16M136 78h6M0 79h3M5 79h1M23 79h16M55 79h16M87 79h16M119 79h16M136 79h6M0 80h4M5 80h1M23 80h16M55 80h16M87 80h16M119 80h16M136 80h6M0 81h6M23 81h16M55 81h16M87 81h16M119 81h16M136 81h6M0 82h6M23 82h16M55 82h16M87 82h16M119 82h16M136 82h6M0 83h6M23 83h16M55 83h16M87 83h16M119 83h16M136 83h6M0 84h6M23 84h16M55 84h16M87 84h16M119 84h16M136 84h6M0 85h6M23 85h16M55 85h16M87 85h16M119 85h16M136 85h6M0 86h6M23 86h16M55 86h16M87 86h16M119 86h16M136 86h6M0 87h6M7 87h16M39 87h16M71 87h16M103 87h16M136 87h6M0 88h6M7 88h16M39 88h16M71 88h16M103 88h16M136 88h6M0 89h6M7 89h16M39 89h16M71 89h16M103 89h16M136 89h6M0 90h6M7 90h16M39 90h16M71 90h16M103 90h16M136 90h6M0 91h6M7 91h16M39 91h16M71 91h16M103 91h16M136 91h6M0 92h6M7 92h16M39 92h16M71 92h16M103 92h16M136 92h6M0 93h2M4 93h2M7 93h16M39 93h16M71 93h16M103 93h16M136 93h6M0 94h3M5 94h1M7 94h16M39 94h16M71 94h16M103 94h16M136 94h6M0 95h2M4 95h2M7 95h16M39 95h16M71 95h16M103 95h16M136 95h6M0 96h6M7 96h16M39 96h16M71 96h16M103 96h16M136 96h6M0 97h6M7 97h16M39 97h16M71 97h16M103 97h16M136 97h6M0 98h6M7 98h16M39 98h16M71 98h16M103 98h16M136 98h6M0 99h6M7 99h16M39 99h16M71 99h16M103 99h16M136 99h6M0 100h6M7 100h16M39 100h16M71 100h16M103 100h16M136 100h6M0 101h6M7 101h16M39 101h16M71 101h16M103 101h16M136 101h6M0 102h6M7 102h16M39 102h16M71 102h16M103 102h16M136 102h6M0 103h6M23 103h16M55 103h16M87 103h16M119 103h16M136 103h6M0 104h6M23 104h16M55 104h16M87 104h16M119 104h16M136 104h6M0 105h6M23 105h16M55 105h16M87 105h16M119 105h16M136 105h6M0 106h6M23 106h16M55 106h16M87 106h16M119 106h16M136 106h6M0 107h6M23 107h16M55 107h16M87 107h16M119 107h16M136 107h6M0 108h6M23 108h16M55 108h16M87 108h16M119 108h16M136 108h6M0 109h2M4 109h2M23 109h16M55 109h16M87 109h16M119 109h16M136 109h6M0 110h3M4 110h2M23 110h16M55 110h16M87 110h16M119 110h16M136 110h6M0 111h3M5 111h1M23 111h16M55 111h16M87 111h16M119 111h16M136 111h6M0 112h6M23 112h16M55 112h16M87 112h16M119 112h16M136 112h6M0 113h6M23 113h16M55 113h16M87 113h16M119 113h16M136 113h6M0 114h6M23 114h16M55 114h16M87 114h16M119 114h16M136 114h6M0 115h6M23 115h16M55 115h16M87 115h16M119 115h16M136 115h6M0 116h6M23 116h16M55 116h16M87 116h16M119 116h16M136 116h6M0 117h6M23 117h16M55 117h16M87 117h16M119 117h16M136 117h6M0 118h6M23 118h16M55 118h16M87 118h16M119 118h16M136 118h6M0 119h6M7 119h16M39 119h16M71 119h16M103 119h16M136 119h6M0 120h6M7 120h16M39 120h16M71 120h16M103 120h16M136 120h6M0 121h6M7 121h16M39 121h16M71 121h16M103 121h16M136 121h6M0 122h6M7 122h16M39 122h16M71 122h16M103 122h16M136 122h6M0 123h6M7 123h16M39 123h16M71 123h16M103 123h16M136 123h6M0 124h6M7 124h16M39 124h16M71 124h16M103 124h16M136 124h6M0 125h6M7 125h16M39 125h16M71 125h16M103 125h16M136 125h6M0 126h3M4 126h2M7 126h16M39 126h16M71 126h16M103 126h16M136 126h6M0 127h3M4 127h2M7 127h16M39 127h16M71 127h16M103 127h16M136 127h6M0 128h2M5 128h1M7 128h16M39 128h16M71 128h16M103 128h16M136 128h6M0 129h6M7 129h16M39 129h16M71 129h16M103 129h16M136 129h6M0 130h6M7 130h16M39 130h16M71 130h16M103 130h16M136 130h6M0 131h6M7 131h16M39 131h16M71 131h16M103 131h16M136 131h6M0 132h6M7 132h16M39 132h16M71 132h16M103 132h16M136 132h6M0 133h6M7 133h16M39 133h16M71 133h16M103 133h16M136 133h6M0 134h6M7 134h16M39 134h16M71 134h16M103 134h16M136 134h6M0 135h6M136 135h6M0 136h142M0 137h13M15 137h15M31 137h15M48 137h15M64 137h14M80 137h14M96 137h14M112 137h14M127 137h15M0 138h13M15 138h15M32 138h14M47 138h15M64 138h14M79 138h14M95 138h16M112 138h14M128 138h14M0 139h15M16 139h14M32 139h14M48 139h14M64 139h15M80 139h14M95 139h15M111 139h15M127 139h1M129 139h13M0 140h142M0 141h142" />
<path stroke="#eaf0d8" d="M6 6h130M6 7h17M39 7h16M71 7h16M103 7h16M135 7h1M6 8h17M39 8h16M71 8h16M103 8h16M135 8h1M6 9h17M39 9h16M71 9h16M103 9h16M135 9h1M6 10h17M39 10h16M71 10h16M103 10h16M135 10h1M6 11h17M39 11h16M71 11h16M103 11h16M135 11h1M6 12h17M39 12h16M71 12h16M103 12h16M135 12h1M2 13h3M6 13h17M39 13h16M71 13h16M103 13h16M135 13h1M3 14h1M6 14h17M39 14h16M71 14h16M103 14h16M135 14h1M2 15h3M6 15h17M39 15h16M71 15h16M103 15h16M135 15h1M6 16h17M39 16h16M71 16h16M103 16h16M135 16h1M6 17h17M39 17h16M71 17h16M103 17h16M135 17h1M6 18h17M39 18h16M71 18h16M103 18h16M135 18h1M6 19h17M39 19h16M71 19h16M103 19h16M135 19h1M6 20h17M39 20h16M71 20h16M103 20h16M135 20h1M6 21h17M39 21h16M71 21h16M103 21h16M135 21h1M6 22h17M39 22h16M71 22h16M103 22h16M135 22h1M6 23h1M23 23h16M55 23h16M87 23h16M119 23h17M6 24h1M23 24h16M55 24h16M87 24h16M119 24h17M6 25h1M23 25h16M55 25h16M87 25h16M119 25h17M6 26h1M23 26h16M55 26h16M87 26h16M119 26h17M6 27h1M23 27h16M55 27h16M87 27h16M119 27h17M6 28h1M23 28h16M55 28h16M87 28h16M119 28h17M6 29h1M23 29h16M55 29h16M87 29h16M119 29h17M2 30h2M6 30h1M23 30h16M55 30h16M87 30h16M119 30h17M3 31h1M6 31h1M23 31h16M55 31h16M87 31h16M119 31h17M3 32h1M6 32h1M23 32h16M55 32h16M87 32h16M119 32h17M6 33h1M23 33h16M55 33h16M87 33h16M119 33h17M6 34h1M23 34h16M55 34h16M87 34h16M119 34h17M6 35h1M23 35h16M55 35h16M87 35h16M119 35h17M6 36h1M23 36h16M55 36h16M87 36h16M119 36h17M6 37h1M23 37h16M55 37h16M87 37h16M119 37h17M6 38h1M23 38h16M55 38h16M87 38h16M119 38h17M6 39h17M39 39h16M71 39h16M103 39h16M135 39h1M6 40h17M39 40h16M71 40h16M103 40h16M135 40h1M6 41h17M39 41h16M71 41h16M103 41h16M135 41h1M6 42h17M39 42h16M71 42h16M103 42h16M135 42h1M6 43h17M39 43h16M71 43h16M103 43h16M135 43h1M6 44h17M39 44h16M71 44h16M103 44h16M135 44h1M2 45h1M6 45h17M39 45h16M71 45h16M103 45h16M135 45h1M2 46h2M6 46h17M39 46h16M71 46h16M103 46h16M135 46h1M2 47h2M6 47h17M39 47h16M71 47h16M103 47h16M135 47h1M6 48h17M39 48h16M71 48h16M103 48h16M135 48h1M6 49h17M39 49h16M71 49h16M103 49h16M135 49h1M6 50h17M39 50h16M71 50h16M103 50h16M135 50h1M6 51h17M39 51h16M71 51h16M103 51h16M135 51h1M6 52h17M39 52h16M71 52h16M103 52h16M135 52h1M6 53h17M39 53h16M71 53h16M103 53h16M135 53h1M6 54h17M39 54h16M71 54h16M103 54h16M135 54h1M6 55h1M23 55h16M55 55h16M87 55h16M119 55h17M6 56h1M23 56h16M55 56h16M87 56h16M119 56h17M6 57h1M23 57h16M55 57h16M87 57h16M119 57h17M6 58h1M23 58h16M55 58h16M87 58h16M119 58h17M6 59h1M23 59h16M55 59h16M87 59h16M119 59h17M6 60h1M23 60h16M55 60h16M87 60h16M119 60h17M3 61h2M6 61h1M23 61h16M55 61h16M87 61h16M119 61h17M3 62h1M6 62h1M23 62h16M55 62h16M87 62h16M119 62h17M2 63h2M6 63h1M23 63h16M55 63h16M87 63h16M119 63h17M6 64h1M23 64h16M55 64h16M87 64h16M119 64h17M6 65h1M23 65h16M55 65h16M87 65h16M119 65h17M6 66h1M23 66h16M55 66h16M87 66h16M119 66h17M6 67h1M23 67h16M55 67h16M87 67h16M119 67h17M6 68h1M23 68h16M55 68h16M87 68h16M119 68h17M6 69h1M23 69h16M55 69h16M87 69h16M119 69h17M6 70h1M23 70h16M55 70h16M87 70h16M119 70h17M6 71h17M39 71h16M71 71h16M103 71h16M135 71h1M6 72h17M39 72h16M71 72h16M103 72h16M135 72h1M6 73h17M39 73h16M71 73h16M103 73h16M135 73h1M6 74h17M39 74h16M71 74h16M103 74h16M135 74h1M6 75h17M39 75h16M71 75h16M103 75h16M135 75h1M6 76h17M39 76h16M71 76h16M103 76h16M135 76h1M6 77h17M39 77h16M71 77h16M103 77h16M135 77h1M2 78h1M4 78h1M6 78h17M39 78h16M71 78h16M103 78h16M135 78h1M3 79h2M6 79h17M39 79h16M71 79h16M103 79h16M135 79h1M4 80h1M6 80h17M39 80h16M71 80h16M103 80h16M135 80h1M6 81h17M39 81h16M71 81h16M103 81h16M135 81h1M6 82h17M39 82h16M71 82h16M103 82h16M135 82h1M6 83h17M39 83h16M71 83h16M103 83h16M135 83h1M6 84h17M39 84h16M71 84h16M103 84h16M135 84h1M6 85h17M39 85h16M71 85h16M103 85h16M135 85h1M6 86h17M39 86h16M71 86h16M103 86h16M135 86h1M6 87h1M23 87h16M55 87h16M87 87h16M119 87h17M6 88h1M23 88h16M55 88h16M87 88h16M119 88h17M6 89h1M23 89h16M55 89h16M87 89h16M119 89h17M6 90h1M23 90h16M55 90h16M87 90h16M119 90h17M6 91h1M23 91h16M55 91h16M87 91h16M119 91h17M6 92h1M23 92h16M55 92h16M87 92h16M119 92h17M2 93h2M6 93h1M23 93h16M55 93h16M87 93h16M119 93h17M3 94h2M6 94h1M23 94h16M55 94h16M87 94h16M119 94h17M2 95h2M6 95h1M23 95h16M55 95h16M87 95h16M119 95h17M6 96h1M23 96h16M55 96h16M87 96h16M119 96h17M6 97h1M23 97h16M55 97h16M87 97h16M119 97h17M6 98h1M23 98h16M55 98h16M87 98h16M119 98h17M6 99h1M23 99h16M55 99h16M87 99h16M119 99h17M6 100h1M23 100h16M55 100h16M87 100h16M119 100h17M6 101h1M23 101h16M55 101h16M87 101h16M119 101h17M6 102h1M23 102h16M55 102h16M87 102h16M119 102h17M6 103h17M39 103h16M71 103h16M103 103h16M135 103h1M6 104h17M39 104h16M71 104h16M103 104h16M135 104h1M6 105h17M39 105h16M71 105h16M103 105h16M135 105h1M6 106h17M39 106h16M71 106h16M103 106h16M135 106h1M6 107h17M39 107h16M71 107h16M103 107h16M135 107h1M6 108h17M39 108h16M71 108h16M103 108h16M135 108h1M2 109h2M6 109h17M39 109h16M71 109h16M103 109h16M135 109h1M3 110h1M6 110h17M39 110h16M71 110h16M103 110h16M135 110h1M3 111h2M6 111h17M39 111h16M71 111h16M103 111h16M135 111h1M6 112h17M39 112h16M71 112h16M103 112h16M135 112h1M6 113h17M39 113h16M71 113h16M103 113h16M135 113h1M6 114h17M39 114h16M71 114h16M103 114h16M135 114h1M6 115h17M39 115h16M71 115h16M103 115h16M135 115h1M6 116h17M39 116h16M71 116h16M103 116h16M135 116h1M6 117h17M39 117h16M71 117h16M103 117h16M135 117h1M6 118h17M39 118h16M71 118h16M103 118h16M135 118h1M6 119h1M23 119h16M55 119h16M87 119h16M119 119h17M6 120h1M23 120h16M55 120h16M87 120h16M119 120h17M6 121h1M23 121h16M55 121h16M87 121h16M119 121h17M6 122h1M23 122h16M55 122h16M87 122h16M119 122h17M6 123h1M23 123h16M55 123h16M87 123h16M119 123h17M6 124h1M23 124h16M55 124h16M87 124h16M119 124h17M6 125h1M23 125h16M55 125h16M87 125h16M119 125h17M3 126h1M6 126h1M23 126h16M55 126h16M87 126h16M119 126h17M3 127h1M6 127h1M23 127h16M55 127h16M87 127h16M119 127h17M2 128h3M6 128h1M23 128h16M55 128h16M87 128h16M119 128h17M6 129h1M23 129h16M55 129h16M87 129h16M119 129h17M6 130h1M23 130h16M55 130h16M87 130h16M119 130h17M6 131h1M23 131h16M55 131h16M87 131h16M119 131h17M6 132h1M23 132h16M55 132h16M87 132h16M119 132h17M6 133h1M23 133h16M55 133h16M87 133h16M119 133h17M6 134h1M23 134h16M55 134h16M87 134h16M119 134h17M6 135h130M13 137h2M30 137h1M46 137h2M63 137h1M78 137h2M94 137h2M110 137h2M126 137h1M13 138h2M30 138h2M46 138h1M62 138h2M78 138h1M93 138h2M111 138h1M126 138h2M15 139h1M30 139h2M46 139h2M62 139h2M79 139h1M94 139h1M110 139h1M126 139h1M128 139h1" />
</svg>