<svg xmlns="http://www.w3.org/2000/svg" viewBox="0 -0.5 16 32" shape-rendering="crispEdges">
<metadata>Made with Pixels to Svg https://codepen.io/shshaw/pen/XbxvNj</metadata>
<path stroke="#1f1f29" d="M7 11h2M9 12h1M10 13h1M11 14h1M3 15h1M12 15h1M3 16h1M12 16h1M3 17h1M12 17h1M4 18h1M11 18h1M5 19h1M10 19h1M5 20h1M10 20h1M5 21h1M10 21h1M5 22h1M10 22h1M5 23h1M10 23h1M11 24h1M12 25h1M2 26h1M13 26h1M2 27h1M13 27h1M2 28h1M13 28h1M1 29h1M14 29h1M1 30h2M13 30h2M2 31h12" />
<path stroke="#596070" d="M6 12h1M5 13h1M4 14h1M10 14h1M7 15h1M11 15h1M6 16h3M11 16h1M7 17h1M10 17h2M9 18h2M8 19h2M9 20h1M9 21h1M9 22h1M9 23h1M4 24h1M9 24h2M3 25h1M7 25h5M11 26h2M11 27h2M7 28h6M10 29h4M3 30h10" />
<path stroke="#eaf0d8" d="M7 12h1M6 13h1M5 14h1M4 15h1M5 24h1M4 25h1M3 26h1M3 27h3M2 29h5" />
<path stroke="#96a2b3" d="M8 12h1M7 13h3M6 14h4M5 15h2M8 15h3M4 16h2M9 16h2M4 17h3M8 17h2M5 18h4M6 19h2M6 20h3M6 21h3M6 22h3M6 23h3M6 24h3M5 25h2M4 26h7M6 27h5M3 28h4M7 29h3" />
</svg>