<svg xmlns="http://www.w3.org/2000/svg" viewBox="0 -0.5 16 32" shape-rendering="crispEdges">
<metadata>Made with Pixels to Svg https://codepen.io/shshaw/pen/XbxvNj</metadata>
<path stroke="#1f1f29" d="M8 12h2M7 13h2M10 13h2M5 14h2M12 14h1M13 15h1M1 16h1M13 16h1M1 17h1M13 17h1M2 18h3M13 18h1M5 19h1M13 19h1M6 20h1M13 20h1M6 21h1M13 21h1M6 22h1M12 22h1M5 23h1M12 23h1M12 24h1M12 25h1M2 26h1M13 26h1M2 27h1M13 27h1M2 28h1M13 28h1M1 29h1M14 29h1M1 30h2M13 30h2M2 31h12" />
<path stroke="#596070" d="M9 13h1M10 14h1M7 15h3M3 16h8M2 17h9M6 18h5M7 19h4M8 20h3M7 21h4M7 22h4M7 23h3M6 24h4M5 25h5M4 26h7M6 27h5M3 28h4M7 29h3" />
<path stroke="#413a42" d="M3 14h2M7 14h3M11 14h1M2 15h1M10 15h3M11 16h2M11 17h2M5 18h1M11 18h2M6 19h1M11 19h2M7 20h1M11 20h2M11 21h2M11 22h1M10 23h2M4 24h1M10 24h2M3 25h1M10 25h2M11 26h2M11 27h2M7 28h6M10 29h4M3 30h10" />
<path stroke="#96a2b3" d="M3 15h4M2 16h1M6 23h1M5 24h1M4 25h1M3 26h1M3 27h3M2 29h5" />
</svg>